<?xml version="1.0" standalone="no"?>
<!DOCTYPE svg PUBLIC "-//W3C//DTD SVG 20010904//EN"
 "http://www.w3.org/TR/2001/REC-SVG-20010904/DTD/svg10.dtd">
<svg version="1.0" xmlns="http://www.w3.org/2000/svg"
 width="994.000000pt" height="781.000000pt" viewBox="0 0 994.000000 781.000000"
 preserveAspectRatio="xMidYMid meet">

<g transform="translate(0.000000,781.000000) scale(0.100000,-0.100000)"
fill="#0CB7C6" stroke="none">
<path d="M785 7790 c-400 -43 -683 -340 -751 -790 -56 -373 44 -663 371 -1070
115 -144 294 -326 412 -421 46 -36 289 -209 540 -384 252 -175 537 -373 633
-440 96 -67 369 -256 605 -420 581 -403 883 -615 1175 -823 631 -452 888 -584
1163 -599 169 -10 312 25 509 122 191 95 353 199 748 480 140 100 419 296 620
435 201 140 599 416 885 615 286 199 610 424 720 500 726 503 758 528 936 704
309 308 498 629 559 951 41 213 34 379 -21 544 -92 276 -328 494 -624 578
l-80 23 -4165 1 c-2291 1 -4196 -2 -4235 -6z"/>
<path d="M20 3036 c0 -2456 -3 -2310 59 -2472 39 -101 97 -190 186 -283 122
-128 257 -209 425 -253 l85 -23 4200 0 4200 0 86 22 c163 42 293 116 414 238
120 119 194 247 238 409 l22 81 2 2265 3 2265 -122 -121 c-207 -203 -256 -241
-813 -619 -938 -638 -1665 -1142 -2197 -1524 -751 -539 -782 -559 -1037 -676
-372 -171 -579 -223 -845 -212 -208 9 -381 53 -633 162 -263 115 -457 228
-753 444 -47 34 -121 88 -165 120 -593 431 -1435 1016 -2670 1856 -306 208
-477 345 -617 494 l-68 71 0 -2244z"/>
</g>
</svg>
