<?xml version="1.0" encoding="UTF-8"?>
<svg version="1.1" viewBox="0 0 2048 559" width="1464" height="400" xmlns="http://www.w3.org/2000/svg">
<path transform="translate(1532,35)" d="m0 0h5l1 3 4-1 3 1 1-3h434l1 2 35 1v2h2v489l-2 3-35 1-1 1h-435l-1-1h-6l-1 1-7-1-7-4v-29l-2-1v-428l1-1 1-29 3-1v-2l5-1z" fill="#FEE023"/>
<path transform="translate(1893,261)" d="m0 0h12l16 2 16 6 11 7 11 11 8 12-1 2-10 5-15 10-11 7-4-5-5-7-10-6-3-1h-16l-8 5-4 6-1 3v9l5 10 10 7 42 19 15 9 11 9 7 8 8 16 3 15v17l-4 15-6 12-9 10-10 8-13 6-15 4-6 1h-29l-22-5-12-5-11-7-11-9-10-13-4-6 1-4 23-13 12-7h3l8 11 10 9 12 5 9 2h10l15-4 8-7 3-7v-8l-3-8-9-8-25-12-18-8-13-7-13-10-9-10-7-13-3-15v-20l3-13 6-12 11-12 14-9 15-5z" fill="#010101"/>
<path transform="translate(1746,264)" d="m0 0h47v170l-3 15-4 11-7 11-9 9-14 8-19 5h-26l-17-4-16-8-10-9-8-9-6-9 1-5 25-15 9-6 4 1 9 13 6 5 7 3h13l9-3 5-6 3-11z" fill="#010101"/>
<path transform="translate(68,185)" d="m0 0h214v7l-1 1h-205v142h194v7l-1 1h-193l1 155h211l8-11 20-26 14-18 13-17 20-26 9-12-2-5-16-21-12-16-16-21-14-19-10-13-9-12-4-6h11l28 38 16 21 10 14 14 19 10 13 4-4 9-12 16-21 21-28 10-13 13-17 7-9 1-1h9l-4 6-13 17-14 19-14 18-12 16-13 17-12 16-2 3 14 18 10 13 28 36 10 13 14 18 10 13 6 7v2h-10l-13-17-12-15-10-13-14-18-30-39-8-10-3 1-29 38-14 18-13 17-10 13-11 14-7 10-2 1h-221l-1-5z" fill="#222122"/>
<path transform="translate(588,270)" d="m0 0h21l16 3 13 5 13 7 9 7 10 10 10 15 7 15 5 15 4 21 1 9v28l-4 24-5 17-7 16-9 14-10 12-12 9-17 9-15 4-18 2-18-1-21-5-16-8-9-7-9-8-9-12-8-16-2-6-4-1v111h-8v-284h8v61h4l2-8 6-12 10-14 12-12 14-9 13-6 17-4zm-2 8-18 4-16 8-11 8-13 13-10 16-6 14-5 16-3 17v33l3 22 5 17 8 16 7 10 6 7 8 7 10 7 16 7 13 3 8 1h20l14-2 15-6 11-7 8-7 7-8 7-9 9-17 5-15 4-19 1-11v-25l-2-18-5-19-6-15-10-16-9-10-14-11-15-7-11-3-7-1z" fill="#242324"/>
<path transform="translate(935,270)" d="m0 0h19l18 3 14 5 15 8 12 11 8 8 9 14 7 16 4 13 3 16 1 11v17h-194l2 26 4 20 6 17 9 16 11 12 12 9 13 6 15 4 8 1h24l17-3 15-5 11-6 10-8 7-7 9-14 6-15 4-18h8l-1 10-4 15-8 16-6 9-15 15-13 8-11 5-18 5-7 1h-33l-16-3-16-6-11-7-13-12-9-13-8-16-5-16-4-21-1-8v-34l3-19 5-17 10-21 8-11 9-11 10-8 13-8 15-6zm-2 8-14 3-13 5-12 7-14 13-9 11-8 14-5 12-5 17-2 14v10h186v-11l-2-18-6-20-8-16-7-10-9-10-13-9-16-8-12-3-7-1z" fill="#232223"/>
<path transform="translate(1146,270)" d="m0 0h24l19 3 16 5 11 6 10 9 6 7 5 11 4 16 1 7v9h-8l-2-17-4-13-8-13-9-8-16-8-15-4-8-1h-28l-16 3-13 5-11 8-8 9-5 10-2 9v12l3 13 6 9 9 8 14 6 27 8 53 14 13 5 14 8 10 9 6 10 3 8 1 5v20l-3 12-6 11-9 10-9 7-14 7-14 4-12 2-22 1-21-2-20-5-16-8-11-8-7-9-7-14-4-15-2-14v-9h8l3 24 4 12 6 11 9 10 10 7 11 5 14 4 15 2h24l19-3 16-6 10-6 10-9 7-12 2-8v-20l-3-10-4-6-5-6-13-9-11-5-20-6-52-13-20-7-13-7-9-8-5-10-3-11-1-7v-10l3-13 7-14 8-9 14-9 13-5 14-3z" fill="#242324"/>
<path transform="translate(1355,270)" d="m0 0h25l19 3 15 5 11 6 10 8 6 8 6 12 4 18 1 13h-8l-1-1-1-15-5-15-6-10-9-9-14-8-14-4-13-2h-27l-13 2-12 4-11 6-9 8-7 11-3 11v17l4 13 7 9 9 6 14 6 25 7 55 15 15 6 11 7 10 10 5 8 3 10 1 7v12l-2 11-4 10-7 11-8 8-16 9-11 4-19 4-22 1-21-2-17-4-15-6-12-8-8-8-8-14-5-17-2-12-1-12 1-1h7l1 1 2 20 4 14 7 13 8 9 14 9 17 6 19 3h25l14-2 16-5 12-6 9-7 8-11 4-10 1-6v-13l-2-11-6-10-5-5-7-6-16-8-20-6-52-13-23-8-12-7-6-5-6-10-3-9-1-9v-13l2-11 8-16 5-6 10-7 16-8 18-4z" fill="#232223"/>
<path transform="translate(824,270)" d="m0 0h15v8l-18 1-15 3-12 5-10 6-12 11-8 10-8 15-6 20-2 17-1 141h-8v-232h8v48l5-1 8-16 8-11 9-8 14-8 13-5 13-3z" fill="#252425"/>
<path transform="translate(1546,35)" d="m0 0h434l1 3h-436z" fill="#FEFBCC"/>
<path transform="translate(69,185)" d="m0 0h213v7l-4-1 1-2h-178l-30-1-1 5h-1z" fill="#090809"/>
<path transform="translate(740,275)" d="m0 0 3 2-1 2v225h4v2h-6z"/>
<path transform="translate(69,385)" d="m0 0h1l1 118 1 3h-4z" fill="#010101"/>
</svg>
